<svg xmlns="http://www.w3.org/2000/svg" version="1.1" xmlns:xlink="http://www.w3.org/1999/xlink" xmlns:svgjs="http://svgjs.com/svgjs" width="1920" height="1080" preserveAspectRatio="none" viewBox="0 0 1920 1080"><g mask="url(&quot;#SvgjsMask1098&quot;)" fill="none"><rect width="1920" height="1080" x="0" y="0" fill="rgba(10, 10, 14, 1)"></rect><path d="M0,674.592C130.35,658.896,251.148,627.088,374.995,583.503C536.08,526.813,735.252,520.132,834.262,380.995C934.793,239.721,905.767,44.944,880.28,-126.565C854.883,-297.463,816.475,-480.413,688.93,-596.961C565.148,-710.07,383.199,-733.28,215.524,-734.006C74.687,-734.616,-39.156,-632.388,-176.385,-600.711C-325.973,-566.181,-517.305,-651.128,-623.562,-540.32C-728.783,-430.593,-627.24,-243.244,-661.257,-95.074C-699.872,73.123,-882.883,215.565,-835.175,381.412C-788.354,544.177,-597.706,625.287,-437.9,681.385C-297.309,730.738,-147.933,692.405,0,674.592" fill="#07070a"></path><path d="M1920 1948.039C2084.421 1970.4160000000002 2262.167 1915.824 2386.6 1806.0439999999999 2505.691 1700.9769999999999 2511.468 1524.365 2568.31 1376.0729999999999 2621.002 1238.608 2726.402 1112.759 2708.35 966.652 2690.206 819.8 2560.966 719.857 2472.573 601.192 2376.323 471.97900000000004 2321.508 284.481 2166.766 239.59199999999998 2012.009 194.69899999999996 1865.781 324.90200000000004 1714.87 381.39200000000005 1576.259 433.27700000000004 1408.067 440.84000000000003 1317.147 557.625 1226.99 673.4300000000001 1276.009 839.408 1246.386 983.149 1214.225 1139.202 1076.566 1290.227 1135.673 1438.19 1194.509 1585.474 1395.481 1602.8139999999999 1528.4560000000001 1689.254 1662.335 1776.2820000000002 1761.78 1926.5059999999999 1920 1948.039" fill="#0d0d12"></path></g><defs><mask id="SvgjsMask1098"><rect width="1920" height="1080" fill="#ffffff"></rect></mask></defs></svg>