<svg xmlns="http://www.w3.org/2000/svg" version="1.1" xmlns:xlink="http://www.w3.org/1999/xlink" xmlns:svgjs="http://svgjs.com/svgjs" width="1920" height="1080" preserveAspectRatio="none" viewBox="0 0 1920 1080"><g mask="url(&quot;#SvgjsMask1043&quot;)" fill="none"><rect width="1920" height="1080" x="0" y="0" fill="rgba(10, 10, 14, 1)"></rect><path d="M0 0L934.08 0L0 452.86z" fill="rgba(255, 255, 255, .1)"></path><path d="M0 452.86L934.08 0L1021.2900000000001 0L0 669.71z" fill="rgba(255, 255, 255, .075)"></path><path d="M0 669.71L1021.2900000000001 0L1418.31 0L0 901.28z" fill="rgba(255, 255, 255, .05)"></path><path d="M0 901.28L1418.31 0L1766 0L0 992.73z" fill="rgba(255, 255, 255, .025)"></path><path d="M1920 1080L1718.83 1080L1920 571.96z" fill="rgba(0, 0, 0, .1)"></path><path d="M1920 571.96L1718.83 1080L1349.1 1080L1920 366.90000000000003z" fill="rgba(0, 0, 0, .075)"></path><path d="M1920 366.9L1349.1 1080L1117.76 1080L1920 245.66999999999996z" fill="rgba(0, 0, 0, .05)"></path><path d="M1920 245.66999999999996L1117.76 1080L858.89 1080L1920 125.22999999999996z" fill="rgba(0, 0, 0, .025)"></path></g><defs><mask id="SvgjsMask1043"><rect width="1920" height="1080" fill="#ffffff"></rect></mask></defs></svg>